<svg width="443" height="52" viewBox="0 0 443 52" fill="none" xmlns="http://www.w3.org/2000/svg">
<path d="M26.4407 0L26.8878 12.0235C27.1614 19.3795 33.0837 25.2788 40.4648 25.5477L52.8814 26L40.4648 26.4523C33.0837 26.7212 27.1614 32.6205 26.8878 39.9765L26.4407 52L25.9935 39.9765C25.72 32.6205 19.7976 26.7212 12.4166 26.4523L0 26L12.4166 25.5477C19.7976 25.2788 25.72 19.3795 25.9935 12.0235L26.4407 0Z" fill="#181818"/>
<path d="M84.8013 14C89.4413 14 91.0413 17.84 91.8013 21.72L95.4413 12L91.5213 14.32C90.3613 13.28 88.3613 12 85.2413 12C76.2013 12 67.6813 20.92 67.6813 30.28C67.6813 36.12 71.6413 40.4 77.2813 40.4C82.2413 40.4 87.0013 37.72 89.4013 32.36C86.3613 35.2 83.5613 36.84 79.8413 36.84C75.5613 36.84 72.6813 33.44 72.6813 28.36C72.6813 20.64 78.7213 14 84.8013 14ZM91.6923 35.32C91.6923 38.48 93.3323 40.4 95.7323 40.4C98.4523 40.4 101.652 38.24 103.332 35.72L97.0123 37.32C96.4923 36.76 96.1323 35.56 96.1323 34.12C96.1323 33.16 96.3323 32.12 96.6523 31C101.252 30.8 106.652 28.8 106.652 24.64C106.652 22.84 105.412 21.44 103.132 21.44C97.4123 21.44 91.6923 29.44 91.6923 35.32ZM102.252 22.68C102.812 23 103.012 23.52 103.012 24.36C103.012 26.8 100.772 29.08 96.7323 30.64C97.8923 27.04 100.412 23.32 102.252 22.68ZM106.69 36.92C106.05 38.72 106.81 40.24 108.93 40.24C111.37 40.24 114.65 38.16 116.61 35.6L111.05 36.96L121.57 8.8L111.89 11.52L115.33 13.56L106.69 36.92ZM118.138 35.32C118.138 38.48 119.778 40.4 122.178 40.4C124.898 40.4 128.098 38.24 129.778 35.72L123.458 37.32C122.938 36.76 122.578 35.56 122.578 34.12C122.578 33.16 122.778 32.12 123.098 31C127.698 30.8 133.098 28.8 133.098 24.64C133.098 22.84 131.858 21.44 129.578 21.44C123.858 21.44 118.138 29.44 118.138 35.32ZM128.698 22.68C129.258 23 129.458 23.52 129.458 24.36C129.458 26.8 127.218 29.08 123.178 30.64C124.338 27.04 126.858 23.32 128.698 22.68ZM141.694 13.56L133.054 37.2C133.134 39.08 134.894 40.4 137.334 40.4C144.934 40.4 152.254 32.52 152.254 25.4C152.254 23.28 151.614 21.44 149.774 21.44C146.734 21.44 143.774 24.92 141.174 28.36H140.574L147.934 8.8L138.254 11.52L141.694 13.56ZM147.494 24.44C148.014 31.16 142.694 38.92 136.774 38.92L139.854 31.32C141.654 28.84 145.574 24.68 147.494 24.44ZM161.096 30.6C162.656 28.16 164.096 26.36 165.536 25L167.616 27.6C169.176 27.2 170.896 25.68 170.896 23.88C170.896 22.56 169.976 21.44 168.376 21.44C165.616 21.44 163.696 24.76 161.616 28.64H161.136L162.736 21.44C159.416 21.44 155.656 23.52 154.176 25.92H158.136L152.736 40H157.256L161.096 30.6ZM180.925 17.32C182.485 17.32 183.725 16.04 183.725 14.48C183.725 12.96 182.485 11.68 180.925 11.68C179.325 11.68 178.085 12.96 178.085 14.48C178.085 16.04 179.325 17.32 180.925 17.32ZM170.885 36.92C170.205 38.72 171.005 40.24 173.125 40.24C175.565 40.24 178.805 38.16 180.765 35.6L175.205 36.96L181.125 21.52C177.925 21.36 173.525 22.92 171.725 25.92H175.085L170.885 36.92ZM182.877 36.88C182.197 38.68 183.037 40.24 185.197 40.24C187.597 40.24 191.517 38.12 193.637 35.44L187.157 36.96L191.917 24.56H195.877L197.157 22.36H192.757L194.757 17.08L189.597 18.6L188.197 22.36L185.597 22.36L184.317 24.56L187.397 24.56L182.877 36.88ZM204.151 21.44C201.031 21.6 197.671 23.56 196.111 25.92H199.631L199.111 43.44C196.551 45.76 194.031 47.6 191.871 48.84L186.871 46.64C186.231 47.32 185.711 48.2 185.711 49.12C185.711 50.64 186.751 51.6 188.591 51.6C196.111 51.6 213.551 32.04 213.551 24.08C213.551 22.56 212.791 21.44 211.391 21.44C209.311 21.44 207.591 23.88 206.911 25.92L210.751 25.92C209.191 30.96 206.391 35.4 203.271 39.12L204.151 21.44ZM241.659 40H246.619L244.379 35.44L252.499 14.32H256.499L257.219 12.4L246.699 12.4L245.939 14.32L250.219 14.32L243.139 32.84L233.139 12.4H227.979L230.619 17.76L222.819 38.08L218.859 38.08L218.099 40L228.659 40L229.379 38.08H225.099L231.899 20.32L241.659 40ZM262.175 17.32C263.735 17.32 264.975 16.04 264.975 14.48C264.975 12.96 263.735 11.68 262.175 11.68C260.575 11.68 259.335 12.96 259.335 14.48C259.335 16.04 260.575 17.32 262.175 17.32ZM252.135 36.92C251.455 38.72 252.255 40.24 254.375 40.24C256.815 40.24 260.055 38.16 262.015 35.6L256.455 36.96L262.375 21.52C259.175 21.36 254.775 22.92 252.975 25.92H256.335L252.135 36.92ZM256.887 46.24C256.887 49.36 261.327 51.6 266.207 51.6C271.327 51.6 276.567 48.6 276.567 45.28C276.567 43.8 275.647 42.88 273.247 41.44L267.447 37.76L268.247 36.12C268.487 36.16 268.767 36.2 269.047 36.2C273.967 36.2 278.447 31.08 278.447 26.84C278.447 26.52 278.407 26.2 278.367 25.92H281.447L283.407 20.8L277.887 24.24C277.087 22.6 275.607 21.44 273.767 21.44C268.927 21.44 264.327 26.6 264.327 30.84C264.327 33.08 265.567 35.12 267.447 35.88C265.847 36.76 264.767 37.84 264.767 39.2C264.767 40.2 265.287 40.92 266.287 41.72L272.847 47.04C272.367 48.68 269.807 49.88 267.047 49.88C263.727 49.88 260.887 47.84 260.847 45.6L265.287 42C260.407 41.32 256.887 43.68 256.887 46.24ZM269.167 34.96C268.767 34.56 268.447 33.72 268.447 32.36C268.447 28.56 270.727 23.72 273.647 22.68C274.047 23.08 274.367 23.92 274.367 25.24C274.367 29.08 272.087 33.92 269.167 34.96ZM300.029 25.52C300.029 23.36 299.469 21.44 297.509 21.44C294.629 21.44 291.349 25.04 288.789 28.48H288.189L295.709 8.8L286.029 11.52L289.469 13.56L279.789 40H284.109L287.389 31.64C289.109 29.04 293.349 24.6 295.309 24.36C295.589 27.72 294.109 33.64 292.589 37.08L287.629 36.32C286.749 38.48 287.349 40.4 289.149 40.4C293.069 40.4 300.029 31.04 300.029 25.52ZM301.51 36.88C300.83 38.68 301.67 40.24 303.83 40.24C306.23 40.24 310.15 38.12 312.27 35.44L305.79 36.96L310.55 24.56H314.51L315.79 22.36H311.39L313.39 17.08L308.23 18.6L306.83 22.36H304.23L302.95 24.56H306.03L301.51 36.88ZM331.031 20.8C331.458 19.84 331.951 18.8267 332.511 17.76C333.098 16.6933 333.711 15.6133 334.351 14.52C335.018 13.4267 335.658 12.4 336.271 11.44H338.951C338.605 12.24 338.245 13.0667 337.871 13.92C337.525 14.7733 337.178 15.64 336.831 16.52C336.485 17.3733 336.151 18.2 335.831 19C335.511 19.8 335.231 20.5467 334.991 21.24H331.151L331.031 20.8ZM349.984 40L354.744 35.52L341.104 35.52V34.96C350.544 29 358.504 23.36 358.504 17.08C358.504 14.2 356.464 12 352.824 12C348.064 12 343.424 15.16 340.224 20.72C343.224 18.08 345.904 15.96 349.384 15.96C351.944 15.96 353.384 17.28 353.384 19.44C353.384 24.8 345.944 30.24 332.064 40H349.984ZM371.117 40L375.877 35.52H362.237V34.96C371.677 29 379.637 23.36 379.637 17.08C379.637 14.2 377.597 12 373.957 12C369.197 12 364.557 15.16 361.357 20.72C364.357 18.08 367.037 15.96 370.517 15.96C373.077 15.96 374.517 17.28 374.517 19.44C374.517 24.8 367.077 30.24 353.197 40H371.117Z" fill="#181818"/>
<path d="M416.322 0L416.769 12.0235C417.043 19.3795 422.965 25.2788 430.346 25.5477L442.763 26L430.346 26.4523C422.965 26.7212 417.043 32.6205 416.769 39.9765L416.322 52L415.875 39.9765C415.601 32.6205 409.679 26.7212 402.298 26.4523L389.881 26L402.298 25.5477C409.679 25.2788 415.601 19.3795 415.875 12.0235L416.322 0Z" fill="#181818"/>
</svg>
