<svg width="358" height="111" viewBox="0 0 358 111" fill="none" xmlns="http://www.w3.org/2000/svg">
<g filter="url(#filter0_bd_145_2925)">
<rect x="23.5" y="11.5" width="311" height="63" rx="31.5" stroke="#181818" shape-rendering="crispEdges"/>
</g>
<path d="M55.8553 26.4257L56.1403 34.0904C56.3147 38.7796 60.09 42.5403 64.7952 42.7117L72.7105 43L64.7953 43.2883C60.09 43.4597 56.3147 47.2204 56.1403 51.9096L55.8553 59.5743L55.5702 51.9096C55.3958 47.2204 51.6205 43.4597 46.9153 43.2883L39 43L46.9153 42.7117C51.6205 42.5403 55.3958 38.7796 55.5702 34.0904L55.8553 26.4257Z" fill="#181818"/>
<path d="M96.952 35.9C99.736 35.9 100.696 38.204 101.152 40.532L103.336 34.7L100.984 36.092C100.288 35.468 99.088 34.7 97.216 34.7C91.792 34.7 86.68 40.052 86.68 45.668C86.68 49.172 89.056 51.74 92.44 51.74C95.416 51.74 98.272 50.132 99.712 46.916C97.888 48.62 96.208 49.604 93.976 49.604C91.408 49.604 89.68 47.564 89.68 44.516C89.68 39.884 93.304 35.9 96.952 35.9ZM101.087 48.692C101.087 50.588 102.071 51.74 103.511 51.74C105.143 51.74 107.063 50.444 108.071 48.932L104.279 49.892C103.967 49.556 103.751 48.836 103.751 47.972C103.751 47.396 103.871 46.772 104.063 46.1C106.823 45.98 110.063 44.78 110.063 42.284C110.063 41.204 109.319 40.364 107.951 40.364C104.519 40.364 101.087 45.164 101.087 48.692ZM107.423 41.108C107.759 41.3 107.879 41.612 107.879 42.116C107.879 43.58 106.535 44.948 104.111 45.884C104.807 43.724 106.319 41.492 107.423 41.108ZM110.085 49.652C109.701 50.732 110.157 51.644 111.429 51.644C112.893 51.644 114.861 50.396 116.037 48.86L112.701 49.676L119.013 32.78L113.205 34.412L115.269 35.636L110.085 49.652ZM116.954 48.692C116.954 50.588 117.938 51.74 119.378 51.74C121.01 51.74 122.93 50.444 123.938 48.932L120.146 49.892C119.834 49.556 119.618 48.836 119.618 47.972C119.618 47.396 119.738 46.772 119.93 46.1C122.69 45.98 125.93 44.78 125.93 42.284C125.93 41.204 125.186 40.364 123.818 40.364C120.386 40.364 116.954 45.164 116.954 48.692ZM123.29 41.108C123.626 41.3 123.746 41.612 123.746 42.116C123.746 43.58 122.402 44.948 119.978 45.884C120.674 43.724 122.186 41.492 123.29 41.108ZM131.088 35.636L125.904 49.82C125.952 50.948 127.008 51.74 128.472 51.74C133.032 51.74 137.424 47.012 137.424 42.74C137.424 41.468 137.04 40.364 135.936 40.364C134.112 40.364 132.336 42.452 130.776 44.516H130.416L134.832 32.78L129.024 34.412L131.088 35.636ZM134.568 42.164C134.88 46.196 131.688 50.852 128.136 50.852L129.984 46.292C131.064 44.804 133.416 42.308 134.568 42.164ZM142.729 45.86C143.665 44.396 144.529 43.316 145.393 42.5L146.641 44.06C147.577 43.82 148.609 42.908 148.609 41.828C148.609 41.036 148.057 40.364 147.097 40.364C145.441 40.364 144.289 42.356 143.041 44.684H142.753L143.713 40.364C141.721 40.364 139.465 41.612 138.577 43.052H140.953L137.713 51.5L140.425 51.5L142.729 45.86ZM154.626 37.892C155.562 37.892 156.306 37.124 156.306 36.188C156.306 35.276 155.562 34.508 154.626 34.508C153.666 34.508 152.922 35.276 152.922 36.188C152.922 37.124 153.666 37.892 154.626 37.892ZM148.602 49.652C148.194 50.732 148.674 51.644 149.946 51.644C151.41 51.644 153.354 50.396 154.53 48.86L151.194 49.676L154.746 40.412C152.826 40.316 150.186 41.252 149.106 43.052H151.122L148.602 49.652ZM155.798 49.628C155.39 50.708 155.894 51.644 157.19 51.644C158.63 51.644 160.982 50.372 162.254 48.764L158.366 49.676L161.222 42.236H163.598L164.366 40.916H161.726L162.926 37.748L159.83 38.66L158.99 40.916H157.43L156.662 42.236H158.51L155.798 49.628ZM168.562 40.364C166.69 40.46 164.674 41.636 163.738 43.052H165.85L165.538 53.564C164.002 54.956 162.49 56.06 161.194 56.804L158.194 55.484C157.81 55.892 157.498 56.42 157.498 56.972C157.498 57.884 158.122 58.46 159.226 58.46C163.738 58.46 174.202 46.724 174.202 41.948C174.202 41.036 173.746 40.364 172.906 40.364C171.658 40.364 170.626 41.828 170.218 43.052H172.522C171.586 46.076 169.906 48.74 168.034 50.972L168.562 40.364ZM191.067 51.5H194.043L192.699 48.764L197.571 36.092H199.971L200.403 34.94L194.091 34.94L193.635 36.092H196.203L191.955 47.204L185.955 34.94H182.859L184.443 38.156L179.763 50.348H177.386L176.93 51.5H183.267L183.699 50.348H181.131L185.211 39.692L191.067 51.5ZM203.376 37.892C204.312 37.892 205.056 37.124 205.056 36.188C205.056 35.276 204.312 34.508 203.376 34.508C202.416 34.508 201.672 35.276 201.672 36.188C201.672 37.124 202.416 37.892 203.376 37.892ZM197.352 49.652C196.944 50.732 197.424 51.644 198.696 51.644C200.16 51.644 202.104 50.396 203.28 48.86L199.944 49.676L203.496 40.412C201.576 40.316 198.936 41.252 197.856 43.052H199.872L197.352 49.652ZM200.204 55.244C200.204 57.116 202.868 58.46 205.796 58.46C208.868 58.46 212.012 56.66 212.012 54.668C212.012 53.78 211.46 53.228 210.02 52.364L206.54 50.156L207.02 49.172C207.164 49.196 207.332 49.22 207.5 49.22C210.452 49.22 213.14 46.148 213.14 43.604C213.14 43.412 213.116 43.22 213.092 43.052H214.94L216.116 39.98L212.804 42.044C212.324 41.06 211.436 40.364 210.332 40.364C207.428 40.364 204.668 43.46 204.668 46.004C204.668 47.348 205.412 48.572 206.54 49.028C205.58 49.556 204.932 50.204 204.932 51.02C204.932 51.62 205.244 52.052 205.844 52.532L209.78 55.724C209.492 56.708 207.956 57.428 206.3 57.428C204.308 57.428 202.604 56.204 202.58 54.86L205.244 52.7C202.316 52.292 200.204 53.708 200.204 55.244ZM207.572 48.476C207.332 48.236 207.14 47.732 207.14 46.916C207.14 44.636 208.508 41.732 210.26 41.108C210.5 41.348 210.692 41.852 210.692 42.644C210.692 44.948 209.324 47.852 207.572 48.476ZM226.089 42.812C226.089 41.516 225.753 40.364 224.577 40.364C222.849 40.364 220.881 42.524 219.345 44.588H218.985L223.497 32.78L217.689 34.412L219.753 35.636L213.945 51.5H216.537L218.505 46.484C219.537 44.924 222.081 42.26 223.257 42.116C223.425 44.132 222.537 47.684 221.625 49.748L218.649 49.292C218.121 50.588 218.481 51.74 219.561 51.74C221.913 51.74 226.089 46.124 226.089 42.812ZM226.977 49.628C226.569 50.708 227.073 51.644 228.369 51.644C229.809 51.644 232.161 50.372 233.433 48.764L229.545 49.676L232.401 42.236L234.777 42.236L235.545 40.916L232.905 40.916L234.105 37.748L231.009 38.66L230.169 40.916H228.609L227.841 42.236H229.689L226.977 49.628ZM244.69 39.98C244.946 39.404 245.242 38.796 245.578 38.156C245.93 37.516 246.298 36.868 246.682 36.212C247.082 35.556 247.466 34.94 247.834 34.364H249.442C249.234 34.844 249.018 35.34 248.794 35.852C248.586 36.364 248.378 36.884 248.17 37.412C247.962 37.924 247.762 38.42 247.57 38.9C247.378 39.38 247.21 39.828 247.066 40.244H244.762L244.69 39.98ZM256.062 51.5L258.918 48.812H250.734V48.476C256.398 44.9 261.174 41.516 261.174 37.748C261.174 36.02 259.95 34.7 257.766 34.7C254.91 34.7 252.126 36.596 250.206 39.932C252.006 38.348 253.614 37.076 255.702 37.076C257.238 37.076 258.102 37.868 258.102 39.164C258.102 42.38 253.638 45.644 245.31 51.5H256.062ZM268.742 51.5L271.598 48.812H263.414V48.476C269.078 44.9 273.854 41.516 273.854 37.748C273.854 36.02 272.63 34.7 270.446 34.7C267.59 34.7 264.806 36.596 262.886 39.932C264.686 38.348 266.294 37.076 268.382 37.076C269.918 37.076 270.782 37.868 270.782 39.164C270.782 42.38 266.318 45.644 257.99 51.5H268.742Z" fill="#181818"/>
<path d="M302.145 26.4257L302.43 34.0904C302.604 38.7796 306.38 42.5403 311.085 42.7117L319 43L311.085 43.2883C306.38 43.4597 302.604 47.2204 302.43 51.9096L302.145 59.5743L301.86 51.9096C301.685 47.2204 297.91 43.4597 293.205 43.2883L285.289 43L293.205 42.7117C297.91 42.5403 301.685 38.7796 301.86 34.0904L302.145 26.4257Z" fill="#181818"/>
<defs>
<filter id="filter0_bd_145_2925" x="0.0509167" y="-11.9491" width="357.898" height="122.648" filterUnits="userSpaceOnUse" color-interpolation-filters="sRGB">
<feFlood flood-opacity="0" result="BackgroundImageFix"/>
<feGaussianBlur in="BackgroundImage" stdDeviation="11.4745"/>
<feComposite in2="SourceAlpha" operator="in" result="effect1_backgroundBlur_145_2925"/>
<feColorMatrix in="SourceAlpha" type="matrix" values="0 0 0 0 0 0 0 0 0 0 0 0 0 0 0 0 0 0 127 0" result="hardAlpha"/>
<feOffset dy="12.7495"/>
<feGaussianBlur stdDeviation="11.4745"/>
<feComposite in2="hardAlpha" operator="out"/>
<feColorMatrix type="matrix" values="0 0 0 0 0 0 0 0 0 0 0 0 0 0 0 0 0 0 0.3 0"/>
<feBlend mode="normal" in2="effect1_backgroundBlur_145_2925" result="effect2_dropShadow_145_2925"/>
<feBlend mode="normal" in="SourceGraphic" in2="effect2_dropShadow_145_2925" result="shape"/>
</filter>
</defs>
</svg>
